<svg xmlns="http://www.w3.org/2000/svg" width="305" height="305" viewBox="0 0 305 305" fill="none"><path d="M285 155C285 230.663 226.573 292 154.5 292C82.4267 292 23.9999 230.663 23.9999 155C23.9999 79.337 82.4267 18 154.5 18C226.573 18 285 79.337 285 155Z" fill="#BCD8E4"></path><path d="M159.947 304.384L148.163 304.505C147.698 304.199 147.166 304.285 146.657 304.266C133.233 303.81 120.066 301.716 107.314 297.503C60.2794 281.974 27.8211 250.99 9.87974 204.872C5.13394 192.664 2.44176 179.91 1.23194 166.849C1.03991 164.752 1.17006 162.621 0.621739 160.559L0.485107 147.21C0.60143 146.608 0.687331 146 0.742473 145.388C1.17705 134.197 2.9224 123.096 5.94271 112.312C15.3181 78.9158 33.845 51.7627 61.5235 30.8525C82.2656 15.1979 105.636 5.7039 131.347 2.02566C141.993 0.511264 152.771 0.156316 163.493 0.967039C175.163 1.83175 186.617 3.81321 197.732 7.44668C240.994 21.5851 272.187 49.3251 291.311 90.6668C298.247 105.656 302.224 121.514 303.766 137.978C303.968 140.124 303.841 142.308 304.39 144.419L304.524 157.457C304.437 158.11 304.295 158.764 304.271 159.419C303.83 170.604 302.09 181.701 299.086 192.483C290.448 223.553 273.69 249.357 248.813 269.895C224.889 289.571 197.468 300.861 166.549 303.764C164.35 303.973 162.112 303.803 159.947 304.384ZM55.7638 163.183L25.995 163.487C23.719 163.511 23.7159 163.511 24.0002 165.836C24.5667 170.909 25.4071 175.948 26.5178 180.93C33.6336 211.586 49.7045 236.453 74.7303 255.53C95.15 271.093 118.332 279.632 143.991 281.341C158.965 282.339 173.76 281.058 188.086 276.646C230.198 263.694 258.962 236.414 274.397 195.157C278.297 184.726 280.344 173.836 281.3 162.746C281.391 161.671 281.538 160.828 279.848 160.849C259.589 161.118 239.33 161.325 219.07 161.471C218.009 161.482 217.616 161.849 217.477 162.825C217.272 164.252 217.032 165.677 216.705 167.08C208.661 201.624 175.416 223.46 140.484 217.124C113.782 212.281 92.5878 191.045 87.7956 164.311C87.6048 163.245 87.2127 162.805 86.0034 162.824C75.9169 163.001 65.8387 163.08 55.7638 163.183ZM106.944 152.935C107.213 177.968 127.929 198.271 152.966 198.015C178.003 197.759 198.299 177.06 198.065 152.021C197.83 126.982 177.123 106.719 152.034 106.963C126.944 107.208 106.675 127.909 106.944 152.935Z" fill="#101F36"></path></svg>