<svg width="25" height="25" viewBox="0 0 25 25" fill="none" xmlns="http://www.w3.org/2000/svg">
<path d="M22.9439 12.7362C22.9439 18.7089 18.3319 23.5507 12.6426 23.5507C6.95336 23.5507 2.3413 18.7089 2.3413 12.7362C2.3413 6.7636 6.95336 1.92182 12.6426 1.92182C18.3319 1.92182 22.9439 6.7636 22.9439 12.7362Z" fill="white"/>
<path d="M13.0726 24.5282L12.1424 24.5378C12.1057 24.5136 12.0637 24.5204 12.0235 24.5189C10.9639 24.4829 9.92447 24.3176 8.91787 23.9851C5.20511 22.7592 2.64294 20.3135 1.2267 16.673C0.852074 15.7093 0.639561 14.7025 0.544061 13.6715C0.528902 13.506 0.539175 13.3378 0.495893 13.175L0.485107 12.1213C0.49429 12.0738 0.50107 12.0258 0.505423 11.9775C0.539728 11.0941 0.677501 10.2178 0.915916 9.36653C1.65598 6.73035 3.11845 4.58696 5.30332 2.93636C6.94064 1.70063 8.7854 0.951202 10.815 0.660852C11.6554 0.541309 12.5062 0.513291 13.3525 0.577287C14.2737 0.645545 15.1779 0.801956 16.0553 1.08877C19.4703 2.20482 21.9326 4.39455 23.4421 7.65795C23.9896 8.84117 24.3036 10.093 24.4253 11.3925C24.4412 11.562 24.4312 11.7343 24.4746 11.901L24.4851 12.9302C24.4783 12.9818 24.4671 13.0333 24.4651 13.0851C24.4304 13.968 24.293 14.8439 24.0559 15.6951C23.374 18.1477 22.0512 20.1846 20.0875 21.8058C18.199 23.3589 16.0344 24.2501 13.5938 24.4793C13.4201 24.4958 13.2435 24.4824 13.0726 24.5282ZM4.84866 13.3822L2.49879 13.4062C2.31913 13.4081 2.31888 13.4081 2.34132 13.5916C2.38604 13.9921 2.45239 14.3898 2.54006 14.7831C3.10177 17.203 4.37035 19.1659 6.34583 20.6718C7.9577 21.9003 9.78766 22.5744 11.8131 22.7093C12.9951 22.7881 14.163 22.6869 15.2938 22.3386C18.6181 21.3162 20.8886 19.1629 22.1069 15.9062C22.4148 15.0828 22.5764 14.2231 22.6519 13.3477C22.6591 13.2628 22.6707 13.1963 22.5373 13.1979C20.9381 13.2192 19.3389 13.2356 17.7396 13.247C17.6559 13.2479 17.6249 13.2769 17.6139 13.3539C17.5977 13.4666 17.5787 13.579 17.5529 13.6898C16.9179 16.4166 14.2937 18.1403 11.5362 17.6402C9.42846 17.2579 7.75545 15.5816 7.37717 13.4712C7.36211 13.3871 7.33115 13.3523 7.23569 13.3538C6.43949 13.3678 5.64394 13.374 4.84866 13.3822ZM8.8887 12.5733C8.9099 14.5493 10.5452 16.1519 12.5215 16.1317C14.4979 16.1115 16.1 14.4776 16.0815 12.5011C16.063 10.5246 14.4285 8.92507 12.448 8.94436C10.4675 8.96366 8.8675 10.5977 8.8887 12.5733Z" fill="#C6000B"/>
</svg>
