<svg width="300" height="294" viewBox="0 0 300 294" fill="none" xmlns="http://www.w3.org/2000/svg">
<g clip-path="url(#clip0_415_526)">
<rect width="300" height="293.182" fill="#92BD2D"/>
<path fill-rule="evenodd" clip-rule="evenodd" d="M200.507 0.287043C200.725 -0.0174288 201.154 -0.0914235 201.466 0.12177L222.767 14.6981C223.079 14.9113 223.154 15.3309 222.936 15.6354L193.288 57.0143C207.702 61.5144 217.522 66.3685 217.522 66.3685C217.522 66.3685 193.519 106.716 152.809 106.716C112.099 106.716 83.1703 69.1113 83.1703 69.1113C83.1703 69.1113 93.4277 62.714 108.633 57.2272L76.1133 19.3532C75.8689 19.0684 75.907 18.644 76.1982 18.4051L96.1184 2.06982C96.4102 1.83091 96.8443 1.86804 97.0887 2.15278L138.264 50.108C141.789 49.7183 145.381 49.5004 149.006 49.5004C154.215 49.5004 159.418 49.8875 164.498 50.5443L200.507 0.287043ZM208.561 108.627C219.425 101.045 235.864 81.2537 235.864 81.2537C235.864 81.2537 277.854 113.773 277.854 182.726C277.854 251.678 205.259 293.177 205.259 293.177C205.259 293.177 170.575 258.945 162.06 215.552C153.546 172.158 174.655 123.974 174.655 123.974C174.655 123.974 197.696 116.21 208.561 108.627ZM91.5592 108.627C80.6953 101.045 64.2563 81.2537 64.2563 81.2537C64.2563 81.2537 22.2656 113.773 22.2656 182.726C22.2656 251.678 94.8609 293.177 94.8609 293.177C94.8609 293.177 129.546 258.945 138.06 215.552C146.575 172.158 125.465 123.974 125.465 123.974C125.465 123.974 102.424 116.21 91.5592 108.627Z" fill="white"/>
</g>
<defs>
<clipPath id="clip0_415_526">
<rect width="300" height="293.182" fill="white"/>
</clipPath>
</defs>
</svg>
