<svg width="300" height="294" viewBox="0 0 300 294" fill="none" xmlns="http://www.w3.org/2000/svg">
<g clip-path="url(#clip0_415_528)">
<rect width="300" height="293.182" fill="#595761"/>
<path fill-rule="evenodd" clip-rule="evenodd" d="M134.402 259.311C140.101 260.164 145.938 260.606 151.882 260.606C215.164 260.606 266.465 210.471 266.465 148.627C266.465 86.7824 215.164 36.6477 151.882 36.6477C147.636 36.6477 143.444 36.8734 139.318 37.3132C170.71 60.5552 191.465 100.817 191.465 146.591C191.465 194.714 168.525 236.744 134.402 259.311ZM149.798 293.182C232.641 293.182 299.798 227.551 299.798 146.591C299.798 65.6309 232.641 0 149.798 0C66.9557 0 -0.201416 65.6309 -0.201416 146.591C-0.201416 227.551 66.9557 293.182 149.798 293.182Z" fill="white"/>
</g>
<defs>
<clipPath id="clip0_415_528">
<rect width="300" height="293.182" fill="white"/>
</clipPath>
</defs>
</svg>
