<svg width="300" height="294" viewBox="0 0 300 294" fill="none" xmlns="http://www.w3.org/2000/svg">
<g clip-path="url(#clip0_415_530)">
<rect width="300" height="293.182" fill="#0C6AC8"/>
<path fill-rule="evenodd" clip-rule="evenodd" d="M164.474 145.95C166.507 144.738 168.232 142.199 169.623 139.378C187.931 146.69 200.796 163.969 200.796 184.12C200.796 210.891 178.091 232.592 150.083 232.592C138.586 232.592 127.982 228.935 119.476 222.772C116.686 221.481 114.39 220.24 112.512 219.225C109.598 217.651 107.687 216.618 106.491 216.78C102.993 217.251 104.009 220.396 104.931 223.253C105.558 225.193 106.142 227.001 105.238 227.747C104.292 228.528 101.229 225.673 97.6494 222.338C92.7768 217.798 86.9478 212.367 84.1992 213.998C82.026 215.288 84.1359 218.788 86.7187 223.071L86.9103 223.389C88.0014 225.199 89.2658 227.043 90.4195 228.725C92.765 232.144 94.6541 234.9 93.709 235.366C92.5664 235.929 84.6059 230.679 77.8975 223.389C75.3082 220.575 72.8004 217.525 70.4695 214.692V214.691C65.3678 208.487 61.1174 203.319 58.7314 203.931C55.8612 204.668 58.0325 210.454 61.2229 216.021C62.7146 218.625 64.4695 221.276 65.9889 223.572V223.572C68.352 227.142 70.1455 229.851 69.4951 230.184C68.6174 230.633 60.8941 223.273 55.6485 213.998C52.5328 208.489 49.9165 202.401 47.7985 197.472C45.5016 192.127 43.7906 188.145 42.6639 187.745C38.7495 186.353 38.7495 194.152 40.3195 205.409C40.5243 206.878 40.8292 208.418 41.2048 209.987C56.4299 258.129 103.2 293.182 158.535 293.182C226.221 293.182 281.091 240.737 281.091 176.042C281.091 114.467 231.386 63.9887 168.234 59.2628C168.314 56.3621 169.863 50.6099 169.863 50.6099C169.863 50.6099 181.012 24.2489 181.601 18.6158C181.64 18.242 181.686 17.8357 181.736 17.403C182.43 11.3166 183.722 0 173.76 0C168.44 0 165.966 3.86785 163.137 8.29149C162.05 9.98971 160.911 11.7699 159.539 13.4446C149.655 25.5066 133.036 40.5695 123.612 48.5944C103.694 65.5559 84.1518 79.4958 72.7541 87.6259L72.7535 87.6264C67.5697 91.3238 64.0711 93.8199 62.9883 94.8512C54.8285 102.625 25.5714 154.199 25.5714 154.199C25.5714 154.199 16.1099 170.745 19.4729 174.101C22.8359 177.457 30.9458 176.688 30.9458 176.688C30.9458 176.688 139.896 152.262 149.65 150.335C152.276 149.816 154.13 149.517 155.553 149.287C159.417 148.664 160.111 148.552 164.474 145.95ZM87.4424 114.561C81.5941 119.993 71.8951 132.96 71.8951 132.96C71.8951 132.96 89.9209 134.045 99.8484 124.823C109.777 115.601 107.502 99.884 107.502 99.884C107.502 99.884 93.29 109.128 87.4424 114.561Z" fill="white"/>
</g>
<defs>
<clipPath id="clip0_415_530">
<rect width="300" height="293.182" fill="white"/>
</clipPath>
</defs>
</svg>
