<svg width="300" height="294" viewBox="0 0 300 294" fill="none" xmlns="http://www.w3.org/2000/svg">
<g clip-path="url(#clip0_415_532)">
<rect width="300" height="293.182" fill="#EF90E6"/>
<path fill-rule="evenodd" clip-rule="evenodd" d="M60.191 232.471L108.309 218.836L149.87 293.1C149.924 293.196 150.066 293.196 150.12 293.1L191.68 218.836L239.799 232.471C239.907 232.502 240.007 232.404 239.975 232.298L226.02 186.204L299.916 146.708C300.015 146.655 300.015 146.517 299.916 146.464L225.411 106.642L239.975 58.5362C240.007 58.4308 239.907 58.3329 239.799 58.3632L190.552 72.3186L150.12 0.0722579C150.066 -0.0240842 149.924 -0.0240869 149.871 0.0722556L109.438 72.3186L60.191 58.3632C60.0832 58.3329 59.983 58.4308 60.0152 58.5362L74.5787 106.642L0.0739383 146.464C-0.0246443 146.517 -0.0246471 146.655 0.073936 146.708L73.9693 186.204L60.0152 232.298C59.983 232.404 60.0832 232.502 60.191 232.471ZM97.5305 147.093L131.62 165.313L150.264 198.627C150.318 198.723 150.459 198.723 150.513 198.627L169.157 165.313L203.246 147.093C203.344 147.04 203.344 146.901 203.246 146.849L169.157 128.628L150.513 95.3144C150.459 95.2177 150.318 95.2177 150.264 95.3144L131.62 128.628L97.5305 146.849C97.432 146.901 97.432 147.04 97.5305 147.093Z" fill="white"/>
</g>
<defs>
<clipPath id="clip0_415_532">
<rect width="300" height="293.182" fill="white"/>
</clipPath>
</defs>
</svg>
