<svg width="300" height="294" viewBox="0 0 300 294" fill="none" xmlns="http://www.w3.org/2000/svg">
<g clip-path="url(#clip0_415_512)">
<rect width="300" height="293.182" fill="#D3425F"/>
<path fill-rule="evenodd" clip-rule="evenodd" d="M51.6994 24.3739C55.33 10.3652 68.3162 0 83.7791 0C95.3777 0 105.583 5.83197 111.492 14.6591H121.167C127.178 8.63031 135.577 4.88636 144.87 4.88636C158.496 4.88636 170.198 12.9345 175.271 24.4318H183.372C188.447 21.335 194.445 19.5454 200.87 19.5454C214.496 19.5454 226.198 27.5936 231.271 39.0909H253.299C253.487 39.0909 253.664 39.1405 253.815 39.2269C254.821 39.1369 255.84 39.0909 256.87 39.0909C275.146 39.0909 289.961 53.5695 289.961 71.4299V168.4L289.961 168.58L289.961 168.759V170.156C289.961 170.747 289.944 171.337 289.911 171.923C287.92 239.193 226.025 293.182 149.961 293.182C72.641 293.182 9.96094 237.395 9.96094 168.58C9.96094 135.362 24.5654 105.181 48.3712 82.8439C48.3118 115.227 48.8715 148.706 51.4516 148.132C58.36 146.593 52.9624 46.2904 51.6994 24.3739Z" fill="white"/>
</g>
<defs>
<clipPath id="clip0_415_512">
<rect width="300" height="293.182" fill="white"/>
</clipPath>
</defs>
</svg>
