<svg width="300" height="294" viewBox="0 0 300 294" fill="none" xmlns="http://www.w3.org/2000/svg">
<g clip-path="url(#clip0_415_504)">
<rect width="300" height="293.182" fill="#FBA64C"/>
<path fill-rule="evenodd" clip-rule="evenodd" d="M206.401 226.411C210.108 213.166 202.913 185.936 202.913 185.936C202.913 185.936 197.695 208.118 189.541 216.317C182.585 223.311 174.062 228.161 161.84 229.436C171.833 224.692 178.705 214.801 178.705 203.369C178.705 187.321 165.163 174.311 148.458 174.311C131.753 174.311 118.21 187.321 118.21 203.369C118.21 207.752 119.221 211.909 121.03 215.635C110.581 207.501 108.938 194.459 108.938 194.459C108.938 194.459 97.271 241.797 129.419 264.065C161.566 286.333 224.542 267.193 224.542 267.193C224.542 267.193 134.42 329.164 67.6384 261.716C10.1115 203.615 52.6238 127.124 52.6238 127.124C52.6238 127.124 50.7878 134.219 50.7878 142.457C50.7878 150.694 55.3577 156.961 55.3577 156.961C55.3577 156.961 68.9895 128.88 79.5985 117.461C89.6391 106.653 102.226 97.8872 113.097 90.316C121.466 84.4879 128.818 79.3675 133.209 74.5684C157.395 48.1395 142.565 0 142.565 0C142.565 0 169.829 23.4889 177.44 53.8251C180.342 65.3887 178.475 78.5458 176.806 90.3115C174.097 109.412 171.907 124.846 191.48 123.844C223.11 122.225 195.625 74.5684 195.625 74.5684C195.625 74.5684 267.374 111.422 262.014 175.878C256.653 240.333 183.588 254.986 183.588 254.986C183.588 254.986 202.694 239.656 206.401 226.411Z" fill="white"/>
</g>
<defs>
<clipPath id="clip0_415_504">
<rect width="300" height="293.182" fill="white"/>
</clipPath>
</defs>
</svg>
