<svg width="300" height="294" viewBox="0 0 300 294" fill="none" xmlns="http://www.w3.org/2000/svg">
<rect width="300" height="293.182" fill="#A1BBEC"/>
<path fill-rule="evenodd" clip-rule="evenodd" d="M104.714 273.56C148.661 273.56 186.285 249.69 201.818 215.853C202.008 215.44 139.457 231.739 141.452 225.977C142.342 223.405 180.686 209.716 208.622 193.749C224.678 184.571 232.072 165.144 232.072 165.144C232.072 165.144 205.021 177.979 191.346 181.235C163.788 187.797 139.53 187.091 139.53 186.407C139.53 184.929 179.81 177.449 235.795 144.108C262.129 128.426 269.282 101.413 269.282 101.413C269.282 101.413 240.33 118.266 222.828 123.831C181.322 137.025 143.446 141.002 143.446 139.216C143.446 135.393 176.778 126.436 212.119 109.701C230.494 101 246.407 89.6325 264.848 76.9907C295.023 56.3071 299.999 19.4692 299.999 19.4692C299.999 19.4692 270.238 38.2283 255.715 44.4581C195.786 70.1639 142.869 83.648 104.714 86.5672C47.1187 90.9741 0 130.246 0 181.235C0 232.225 46.882 273.56 104.714 273.56Z" fill="white"/>
</svg>
