<svg width="300" height="294" viewBox="0 0 300 294" fill="none" xmlns="http://www.w3.org/2000/svg">
<g clip-path="url(#clip0_415_534)">
<rect width="300" height="293.182" fill="#5F6DBC"/>
<path fill-rule="evenodd" clip-rule="evenodd" d="M216.183 292.167C189.122 293.52 158.142 293.52 147.614 292.167C65.4902 281.608 0 222.929 0 143.613C0 64.2979 67.1572 0 150 0C232.843 0 300 64.2979 300 143.613C300 180.502 285.473 214.142 261.598 239.577C255.114 246.483 264.01 251.328 273.048 256.25C281.912 261.078 290.913 265.98 285.682 272.975C279.918 280.683 248.667 290.541 216.183 292.167ZM128.906 125.662C128.906 138.054 118.413 148.101 105.469 148.101C92.5248 148.101 82.0312 138.054 82.0312 125.662C82.0312 117.35 86.751 110.094 93.7641 106.216C94.1678 117.022 103.259 125.661 114.415 125.661L128.906 125.662ZM201.548 106.216C201.145 117.022 192.053 125.661 180.897 125.661H166.406C166.406 138.054 176.9 148.101 189.844 148.101C202.788 148.101 213.281 138.054 213.281 125.662C213.281 117.35 208.562 110.094 201.548 106.216Z" fill="white"/>
</g>
<defs>
<clipPath id="clip0_415_534">
<rect width="300" height="293.182" fill="white"/>
</clipPath>
</defs>
</svg>
