<svg width="300" height="294" viewBox="0 0 300 294" fill="none" xmlns="http://www.w3.org/2000/svg">
<rect width="300" height="293.182" fill="#60BE58"/>
<path fill-rule="evenodd" clip-rule="evenodd" d="M57.0774 252.325C56.0476 251.378 55.0293 250.413 54.0228 249.429C0.887269 197.502 0.887278 113.31 54.0228 61.3824C107.158 9.45439 276.468 5.98047 276.468 5.98047C276.468 5.98047 299.579 197.502 246.444 249.429C199.252 295.548 126.02 300.708 73.0031 264.908L115.723 213.675L184.014 199.266L128.268 193.82L163.695 158.568L204.022 149.935L172.134 140.706L204.022 84.4883L158.664 134.208L141.149 110.053L147.315 149.935L115.723 184.74L101.078 140.705V199.266L57.0774 252.325Z" fill="white"/>
</svg>
