<svg width="300" height="294" viewBox="0 0 300 294" fill="none" xmlns="http://www.w3.org/2000/svg">
<g clip-path="url(#clip0_415_514)">
<rect width="300" height="293.182" fill="#DA7C4D"/>
<path fill-rule="evenodd" clip-rule="evenodd" d="M66.0727 251.812C65.9912 251.812 65.9344 251.734 65.9613 251.659L142.552 40.1602C142.569 40.1142 142.614 40.0835 142.663 40.0835H224.426C224.476 40.0835 224.521 40.1145 224.538 40.1607L299.992 251.659C300.019 251.734 299.962 251.812 299.881 251.812H68.3742H66.0727ZM0.117953 252.64C0.0356908 252.64 -0.0212608 252.56 0.00759418 252.485L57.0425 103.676C57.0598 103.631 57.1038 103.601 57.1529 103.601H106.71C106.792 103.601 106.849 103.681 106.821 103.756L51.6693 252.564C51.6524 252.609 51.6081 252.64 51.5585 252.64H0.117953Z" fill="white"/>
</g>
<defs>
<clipPath id="clip0_415_514">
<rect width="300" height="293.182" fill="white"/>
</clipPath>
</defs>
</svg>
