<svg width="300" height="294" viewBox="0 0 300 294" fill="none" xmlns="http://www.w3.org/2000/svg">
<rect width="300" height="293.182" fill="#76D1C1"/>
<path fill-rule="evenodd" clip-rule="evenodd" d="M225.178 22.356L226.101 101.578L155.396 134.748L154.524 59.9475L225.178 22.356Z" fill="white"/>
<path fill-rule="evenodd" clip-rule="evenodd" d="M296.056 147.19L226.063 186.316L156.028 147.128L226.027 111.195L296.056 147.19Z" fill="white"/>
<path fill-rule="evenodd" clip-rule="evenodd" d="M143.578 147.19L73.585 186.316L3.55005 147.128L73.5487 111.195L143.578 147.19Z" fill="white"/>
<path fill-rule="evenodd" clip-rule="evenodd" d="M72.7986 22.0317L145.447 57.1939L143.589 133.82L74.9958 100.62L72.7986 22.0317Z" fill="white"/>
<path fill-rule="evenodd" clip-rule="evenodd" d="M227.155 271.15L154.507 235.988L156.365 159.361L224.958 192.561L227.155 271.15Z" fill="white"/>
<path fill-rule="evenodd" clip-rule="evenodd" d="M75.3077 271.863L74.3843 192.641L145.09 159.471L145.962 234.271L75.3077 271.863Z" fill="white"/>
</svg>
