<svg width="300" height="300" viewBox="0 0 300 300" fill="none" xmlns="http://www.w3.org/2000/svg">
<g clip-path="url(#clip0_415_500)">
<rect width="300" height="300" fill="#B763CF"/>
<path fill-rule="evenodd" clip-rule="evenodd" d="M250.676 230.537C280.971 206.313 300 171.314 300 132.393C300 59.274 232.843 0 150 0C67.1572 0 0 59.274 0 132.393C0 169.909 17.6799 203.781 46.0871 227.872C44.3655 233.816 43.421 240.282 43.421 247.043C43.421 276.29 61.0939 300 82.8949 300C97.0605 300 109.484 289.989 116.447 274.954C123.411 289.989 135.834 300 150 300C162.913 300 174.377 291.682 181.579 278.822C188.781 291.682 200.245 300 213.158 300C234.959 300 252.632 276.29 252.632 247.043C252.632 241.28 251.945 235.731 250.676 230.537ZM236.842 135.018C236.842 172.14 197.078 202.233 148.027 202.233C98.9748 202.233 59.2107 172.14 59.2107 135.018C59.2107 97.8967 98.9748 67.8035 148.027 67.8035C197.078 67.8035 236.842 97.8967 236.842 135.018Z" fill="white"/>
</g>
<defs>
<clipPath id="clip0_415_500">
<rect width="300" height="300" fill="white"/>
</clipPath>
</defs>
</svg>
