<svg width="300" height="294" viewBox="0 0 300 294" fill="none" xmlns="http://www.w3.org/2000/svg">
<g clip-path="url(#clip0_415_536)">
<rect width="300" height="293.182" fill="#FA8582"/>
<path fill-rule="evenodd" clip-rule="evenodd" d="M267.144 243.469C267.144 243.469 229.315 273.119 154.039 260.849C96.9275 251.54 66.467 190.014 66.467 156.943C66.467 78.5344 125.849 60.6909 165.996 60.6909C206.142 60.6909 232.332 98.942 232.332 128.558C232.332 158.174 210.898 184.078 177.543 184.078C144.187 184.078 134.309 161.193 134.309 140.154C134.309 119.114 151.727 111.702 167.612 111.702C183.497 111.702 188.937 124.956 188.937 136.347C188.937 147.738 179.893 151.818 172.349 151.818C164.806 151.818 164.06 148.099 161.173 144.19C158.286 140.282 164.855 125.488 154.039 125.488C143.222 125.488 141.206 142.495 141.206 142.495C141.206 142.495 145.15 175.325 177.543 174.759C209.936 174.192 225.303 149.718 220.837 125.488C216.371 101.257 192.309 75.5086 150.078 80.7115C107.847 85.9143 90.6047 127.615 98.2049 172.178C105.805 216.743 160.434 242.563 203.386 233.274C246.339 223.984 289.119 193.595 289.119 116.547C289.119 39.4988 220.837 -6.8143 139.419 0.818355C57.9995 8.45097 7.45839 78.015 10.6935 161.598C13.9285 245.18 95.083 290.702 163.707 293.048C232.332 295.394 274.402 256.572 274.402 256.572C274.402 256.572 283.863 248.327 280.153 241.889C276.444 235.45 267.144 243.469 267.144 243.469Z" fill="white"/>
</g>
<defs>
<clipPath id="clip0_415_536">
<rect width="300" height="293.182" fill="white"/>
</clipPath>
</defs>
</svg>
