<svg width="300" height="294" viewBox="0 0 300 294" fill="none" xmlns="http://www.w3.org/2000/svg">
<g clip-path="url(#clip0_415_538)">
<rect width="300" height="293.182" fill="#C9BC8A"/>
<path fill-rule="evenodd" clip-rule="evenodd" d="M231.526 140.153C231.509 140.13 231.502 140.101 231.507 140.073L250.646 31.0083C250.655 30.9581 250.7 30.9214 250.751 30.9214H256.809C256.856 30.9214 256.897 30.951 256.911 30.9945L300.03 164.417C300.043 164.458 300.029 164.504 299.994 164.531L268.201 188.789C268.154 188.825 268.085 188.816 268.049 188.768L231.526 140.153ZM-0.585938 212.455C-0.585938 212.5 -0.556174 212.54 -0.512173 212.554L65.0244 233.496C65.0561 233.506 65.0912 233.501 65.1188 233.483L211.608 134.648C211.633 134.632 211.649 134.606 211.654 134.577L227.363 31.5675C227.372 31.5043 227.322 31.4475 227.257 31.4475H97.5035C97.4713 31.4475 97.4414 31.4614 97.4209 31.4854L-0.561313 147C-0.57723 147.019 -0.585938 147.042 -0.585938 147.067V212.455ZM92.3338 238.831L163.931 261.752C163.963 261.762 163.999 261.757 164.027 261.737L249.268 201.983C249.316 201.95 249.328 201.886 249.295 201.84L217.341 155.368C217.307 155.32 217.24 155.307 217.191 155.34L92.3338 238.831Z" fill="white"/>
</g>
<defs>
<clipPath id="clip0_415_538">
<rect width="300" height="293.182" fill="white"/>
</clipPath>
</defs>
</svg>
