<svg width="300" height="294" viewBox="0 0 300 294" fill="none" xmlns="http://www.w3.org/2000/svg">
<rect width="300" height="293.182" fill="#5795A3"/>
<path fill-rule="evenodd" clip-rule="evenodd" d="M0.0299477 145.748C-0.00996363 145.681 -0.00998367 145.599 0.0298943 145.532L75.4658 19.5748C75.5051 19.5094 75.5772 19.4692 75.6545 19.4692H225.172C225.25 19.4692 225.322 19.5098 225.362 19.5757L299.97 145.533C300.009 145.599 300.009 145.681 299.97 145.746L225.362 271.562C225.322 271.628 225.25 271.669 225.172 271.669H75.6545C75.5772 271.669 75.5051 271.629 75.4658 271.563L0.0299477 145.748ZM219.502 145.569C219.502 183.069 188.395 213.469 150.023 213.469C111.652 213.469 80.5447 183.069 80.5447 145.569C80.5447 108.069 111.652 77.6693 150.023 77.6693C188.395 77.6693 219.502 108.069 219.502 145.569Z" fill="white"/>
</svg>
